<svg viewBox="0 0 800 600" xmlns="http://www.w3.org/2000/svg">
  <rect width="800" height="600" fill="#1a1a1a"/>
  <line x1="100" y1="50" x2="100" y2="550" stroke="#333" stroke-width="2"/>
  <line x1="100" y1="550" x2="750" y2="550" stroke="#333" stroke-width="2"/>
  <text x="40" y="100" fill="#888" font-size="14" font-family="monospace">$94,000</text>
  <text x="40" y="150" fill="#888" font-size="14" font-family="monospace">$93,500</text>
  <text x="40" y="250" fill="#888" font-size="14" font-family="monospace">$93,000</text>
  <text x="40" y="300" fill="#888" font-size="14" font-family="monospace">$92,500</text>
  <text x="40" y="400" fill="#888" font-size="14" font-family="monospace">$92,000</text>
  <text x="40" y="500" fill="#888" font-size="14" font-family="monospace">$91,500</text>
  <rect x="100" y="150" width="650" height="250" fill="#ff9800" opacity="0.2"/>
  <line x1="100" y1="150" x2="750" y2="150" stroke="#ff9800" stroke-width="2" stroke-dasharray="5,5"/>
  <line x1="100" y1="400" x2="750" y2="400" stroke="#ff9800" stroke-width="2" stroke-dasharray="5,5"/>
  <text x="330" y="140" fill="#ff9800" font-size="16" font-weight="bold" font-family="Arial">TOP = $93,500</text>
  <text x="330" y="420" fill="#ff9800" font-size="16" font-weight="bold" font-family="Arial">BOTTOM = $92,000</text>
  <text x="320" y="275" fill="#ff9800" font-size="20" font-weight="bold" font-family="Arial">BEARISH FVG</text>
  <rect x="180" y="90" width="40" height="90" fill="#66bb6a"/>
  <line x1="200" y1="70" x2="200" y2="90" stroke="#66bb6a" stroke-width="2"/>
  <line x1="200" y1="180" x2="200" y2="200" stroke="#66bb6a" stroke-width="2"/>
  <text x="175" y="215" fill="#fff" font-size="12" font-family="Arial">[i-2]</text>
  <text x="210" y="165" fill="#888" font-size="11" font-family="Arial">low=$93,500</text>
  <rect x="280" y="420" width="40" height="70" fill="#ef5350"/>
  <line x1="300" y1="390" x2="300" y2="420" stroke="#ef5350" stroke-width="2"/>
  <line x1="300" y1="490" x2="300" y2="510" stroke="#ef5350" stroke-width="2"/>
  <text x="285" y="525" fill="#fff" font-size="12" font-family="Arial">[i]</text>
  <text x="310" y="430" fill="#888" font-size="11" font-family="Arial">high=$92,000</text>
  <rect x="380" y="240" width="40" height="110" fill="#ef5350"/>
  <line x1="400" y1="210" x2="400" y2="240" stroke="#ef5350" stroke-width="2"/>
  <line x1="400" y1="350" x2="400" y2="375" stroke="#ef5350" stroke-width="2"/>
  <text x="375" y="390" fill="#fff" font-size="12" font-family="Arial">[i+1]</text>
  <circle cx="400" cy="350" r="5" fill="#ffeb3b"/>
  <text x="410" y="355" fill="#ffeb3b" font-size="12" font-family="Arial">low=$92,800</text>
  <rect x="480" y="220" width="40" height="130" fill="#ef5350"/>
  <line x1="500" y1="190" x2="500" y2="220" stroke="#ef5350" stroke-width="2"/>
  <line x1="500" y1="350" x2="500" y2="375" stroke="#ef5350" stroke-width="2"/>
  <text x="475" y="390" fill="#fff" font-size="12" font-family="Arial">[i+2]</text>
  <circle cx="500" cy="190" r="5" fill="#ffeb3b"/>
  <text x="510" y="195" fill="#ffeb3b" font-size="12" font-family="Arial">low=$93,100</text>
  <rect x="580" y="80" width="40" height="110" fill="#66bb6a"/>
  <line x1="600" y1="55" x2="600" y2="80" stroke="#66bb6a" stroke-width="2"/>
  <line x1="600" y1="190" x2="600" y2="210" stroke="#66bb6a" stroke-width="2"/>
  <text x="575" y="225" fill="#fff" font-size="12" font-family="Arial">[i+3]</text>
  <text x="610" y="125" fill="#ff0000" font-size="14" font-weight="bold" font-family="Arial">REJECTED!</text>
  <text x="610" y="145" fill="#ff0000" font-size="12" font-family="Arial">close=$93,800</text>
  <text x="610" y="160" fill="#0f0" font-size="11" font-family="Arial">LONG setup!</text>
  <rect x="100" y="450" width="220" height="100" fill="#333" stroke="#ffeb3b" stroke-width="2" rx="5"/>
  <text x="110" y="470" fill="#ffeb3b" font-size="14" font-weight="bold" font-family="Arial">SL for LONG:</text>
  <text x="110" y="490" fill="#fff" font-size="12" font-family="monospace">min(92800, 93100)</text>
  <text x="110" y="510" fill="#fff" font-size="12" font-family="monospace">= 92800 * 0.998</text>
  <text x="110" y="530" fill="#0f0" font-size="14" font-weight="bold" font-family="monospace">= $92,614</text>
  <text x="200" y="30" fill="#fff" font-size="20" font-weight="bold" font-family="Arial">Приклад 4: BEARISH FVG - З LOWS INSIDE (LONG)</text>
</svg>
